Simulation
nRows=40
nColumns=15
endheader
time  TH_x TH_y TH_z SC_y  SC_z  SC_x  AC_y  AC_z  AC_x  GH_y  GH_z  GH_yy  EL_x  PS_y
0.0  0.000000  0.000000  0.000000  -32.0654809800072  1.4573564036286943  30.574717742255494  52.38872228743285  -13.567526634494769  -20.92503790882722  -135.54714214028266  3.2649358136375946  165.31119629729753  22.556783293123736  0.000000
0.031  0.000000  0.000000  0.000000  -32.00979539888848  1.2600007360632293  30.636624235563865  51.848055657237246  -14.457150804574022  -21.63699880776651  -124.92852598679089  3.659501491255332  154.50754951977342  22.370701062123626  0.000000
0.062  0.000000  0.000000  0.000000  -31.74356061203404  0.8625873837277876  30.640149238111324  51.37321918190825  -15.574065386822088  -22.271276348986664  -117.79390224984921  3.8980697103325603  147.0608260139488  22.26690197410493  0.000000
0.093  0.000000  0.000000  0.000000  -31.476446809182832  0.37860416919948425  30.624305369742803  50.969170498027154  -16.71325888064653  -22.87745501727485  -114.2082665349012  3.9114302468887465  143.06162363499766  22.25447763323527  0.000000
0.124  0.000000  0.000000  0.000000  -31.214156472145888  -0.10463435611288466  30.636362895742007  50.59034255148996  -17.785737834072147  -23.45572271107441  -112.90951590583842  3.7458625594086428  141.30404195885055  22.26899187555146  0.000000
0.155  0.000000  0.000000  0.000000  -30.96994334127849  -0.5533078750515587  30.684415941955617  50.231991091697445  -18.725985145768007  -24.007172004643344  -112.93292165027704  3.441310925828523  140.83312107423924  22.28877894176189  0.000000
0.186  0.000000  0.000000  0.000000  -30.736619065584467  -0.9419141683086277  30.76044508329402  49.899708848903344  -19.51689363184038  -24.5099533930653  -113.22646580772657  3.0312585039385245  140.60940394243033  22.296548812154622  0.000000
0.217  0.000000  0.000000  0.000000  -30.517114785296314  -1.261134734984852  30.86184378240537  49.60816993376578  -20.161497909891605  -24.95752710526576  -112.75823187419613  2.523138123595285  139.59587770460126  22.29092108981062  0.000000
0.248  0.000000  0.000000  0.000000  -30.317864637804806  -1.5123430624298058  30.985561697073933  49.3643929800733  -20.676790012675  -25.338713110800327  -109.56443267739728  1.9268097728783198  135.8295526682618  22.268459296273548  0.000000
0.279  0.000000  0.000000  0.000000  -30.147065706929464  -1.7048080546679911  31.13213743770072  49.17602679053342  -21.081592055869706  -25.65763534791322  -98.2066318458953  1.2689633265462787  123.86629658107341  22.23038414618377  0.000000
0.31  0.000000  0.000000  0.000000  -30.010246390695595  -1.8450812451043528  31.303873263532527  49.04454367643183  -21.3969249575535  -25.915949551058162  -56.82408015909235  0.7825115553003372  81.85009471671297  22.179254309378358  0.000000
0.34099999999999997  0.000000  0.000000  0.000000  -29.90928715504464  -1.9390180152673133  31.507605623795005  48.96853389135986  -21.643596024014407  -26.124371052757006  -0.5642941651906507  1.1850543323390488  24.92728920416583  22.117410004035225  0.000000
0.372  0.000000  0.000000  0.000000  -29.84920529875595  -1.9920373169587746  31.74918165920546  48.943119498662305  -21.84036313244353  -26.290187543612152  17.800047465075025  2.190989813968728  5.87547038736001  22.046247773986824  0.000000
0.403  0.000000  0.000000  0.000000  -29.82733144193994  -2.0081711648712326  32.03520448842411  48.96219188698049  -21.999882467558912  -26.424298221593485  23.991404261516823  3.4142976375106406  -1.0267907566489118  21.96751708721786  0.000000
0.434  0.000000  0.000000  0.000000  -29.841464573505256  -1.9904431478693045  32.368609684156205  49.02061236821158  -22.132303241799278  -26.532796958618235  26.605472030283323  4.7774015452725545  -4.36979229956774  21.882830736894846  0.000000
0.46499999999999997  0.000000  0.000000  0.000000  -29.88689900938379  -1.9418287064001207  32.75372298141555  49.11272385321271  -22.24290402663091  -26.62346541815217  27.85172859728876  6.2496225064435125  -6.360824665804899  21.793540331280347  0.000000
0.496  0.000000  0.000000  0.000000  -29.958337342465317  -1.8638948756690656  33.18999053691555  49.23482122058788  -22.33530911570857  -26.699298302468325  28.472915371028673  7.810140227242938  -7.738885244373104  21.700499795694647  0.000000
0.527  0.000000  0.000000  0.000000  -30.05234350394517  -1.756680110170129  33.67696145410248  49.381563535641995  -22.407926507504996  -26.760705319559413  28.773310407610197  9.43821848494786  -8.804907984891384  21.605067013280355  0.000000
0.558  0.000000  0.000000  0.000000  -30.161185079323246  -1.624381660161306  34.20838840306288  49.55253921633749  -22.457200544513004  -26.80891944068676  28.884800598314722  11.117528831678454  -9.689774618861739  21.506182324874793  0.000000
0.589  0.000000  0.000000  0.000000  -30.283995767590028  -1.4681519284697269  34.786492042631856  49.74064311750279  -22.48154773369871  -26.84674393249653  28.863660497053154  12.833137125722597  -10.446976279706947  21.403707185642325  0.000000
0.62  0.000000  0.000000  0.000000  -30.416590621705204  -1.2848344104221452  35.39456268260019  49.945540031070834  -22.470854725804422  -26.866394178044125  28.75188912877447  14.576321778759738  -11.11746002405937  21.29865400463272  0.000000
0.651  0.000000  0.000000  0.000000  -30.55637862745082  -1.077643788202257  36.011222295982996  50.16863930747251  -22.408930944982416  -26.854870045063308  28.56538490517086  16.33924350427498  -11.71464925344777  21.19104704484549  0.000000
0.6819999999999999  0.000000  0.000000  0.000000  -30.698637022184485  -0.8528666726638914  36.62165386465789  50.41282523448173  -22.290227697107312  -26.8082122219321  28.323195459951783  18.11492318545177  -12.257564096706979  21.08026999042769  0.000000
0.713  0.000000  0.000000  0.000000  -30.841722289289105  -0.6171024315691626  37.22262900829617  50.67409450288469  -22.114715110905383  -26.728216410036598  28.03166577930213  19.89337140635413  -12.750662966834597  20.96664959371561  0.000000
0.744  0.000000  0.000000  0.000000  -30.98198946218439  -0.374906712564171  37.825204566809035  50.94569338716565  -21.896568866035054  -26.628098116095824  27.698949553600567  21.66682806251869  -13.200801862059192  20.85083605365262  0.000000
0.775  0.000000  0.000000  0.000000  -31.119291253015575  -0.12388123444755146  38.44614910645092  51.21846828203245  -21.652294170263787  -26.516789086380484  27.337559471544058  23.42878582169178  -13.616273474208441  20.73298050227023  0.000000
0.806  0.000000  0.000000  0.000000  -31.250703943267485  0.13865197653177774  39.082392576574264  51.48742806402458  -21.386659957863504  -26.39499306248427  26.961707881444454  25.1776432237936  -14.008178893602262  20.614360798088285  0.000000
0.837  0.000000  0.000000  0.000000  -31.376347774457756  0.41217197976573644  39.72973164568696  51.74767600409848  -21.099598993090908  -26.2608071258391  26.57568372541693  26.910797094531976  -14.376628275511758  20.495862028503492  0.000000
0.868  0.000000  0.000000  0.000000  -31.494776780277675  0.6960965771555572  40.38125470966256  51.99636157071819  -20.793286848649682  -26.113614364120952  26.184838742194856  28.62649852496706  -14.723806765237228  20.377324411568914  0.000000
0.899  0.000000  0.000000  0.000000  -31.607528546609046  0.9894687813549647  41.0308688669594  52.23016870954923  -20.467804507613234  -25.95045552954819  25.791025233112293  30.322003297474886  -15.047280546774024  20.259492808835194  0.000000
0.9299999999999999  0.000000  0.000000  0.000000  -31.71374534524066  1.2910914925612966  41.67089856871137  52.44731499182927  -20.125355345405804  -25.770130948076787  25.397656600724112  31.995022671379374  -15.34740012228605  20.142165671273702  0.000000
0.961  0.000000  0.000000  0.000000  -31.815606545600406  1.5992385205432456  42.29563644128528  52.64596577013923  -19.766528342548646  -25.570208543550475  25.00605156562186  33.64271432930924  -15.621969188645789  20.025730526491227  0.000000
0.992  0.000000  0.000000  0.000000  -31.91325593845027  1.91261837324342  42.89878251500576  52.82562668411997  -19.39439304903383  -25.350243943491957  24.619180979929716  35.26226471784553  -15.871550472100402  19.910413181656235  0.000000
1.023  0.000000  0.000000  0.000000  -32.00971984134266  2.2299463792999124  43.47620769597248  52.98662856991774  -19.010554921489184  -25.10764892015346  24.239523704694548  36.850468428910816  -16.095916659365255  19.79638194894739  0.000000
1.054  0.000000  0.000000  0.000000  -32.1046373436166  2.549225726395503  44.02198965786739  53.1301561928932  -18.617269525356924  -24.841708475571725  23.870432994605768  38.404403397109874  -16.296888329770578  19.68384217168956  0.000000
1.085  0.000000  0.000000  0.000000  -32.20025525943282  2.8684830878366347  44.5328365309816  53.257632950811264  -18.21562260072305  -24.550993896393084  23.514215787867332  39.92088175276363  -16.475280901815744  19.573156001365223  0.000000
1.116  0.000000  0.000000  0.000000  -32.296085494637644  3.1855351937105447  45.003974967847405  53.37088380896596  -17.808159426357914  -24.23592263194159  23.173089227232996  41.39690219712425  -16.63292402335559  19.464534969531122  0.000000
1.147  0.000000  0.000000  0.000000  -32.39461859353608  3.4985134781912612  45.43389835812114  53.4717743458278  -17.39682010144574  -23.896504152327125  22.848615114894304  42.829175283152104  -16.77096061402343  19.35832973404628  0.000000
1.178  0.000000  0.000000  0.000000  -32.49529938147284  3.8052831144847037  45.81917421979342  53.56244896871118  -16.984744958020674  -23.534547952631087  22.54258154423421  44.215032224992285  -16.89188437591696  19.254843849080977  0.000000
1.209  0.000000  0.000000  0.000000  -32.59977534007508  4.103569341439452  46.160607532803716  53.64533181865473  -16.574559001290055  -23.15166915822809  22.2556634336574  45.551268585031075  -16.997418828080914  19.154127510117917  0.000000
